<svg id="visual" viewBox="0 0 900 450" width="900" height="450" xmlns="http://www.w3.org/2000/svg" xmlns:xlink="http://www.w3.org/1999/xlink" version="1.1"><path d="M0 91L30 125.5C60 160 120 229 180 228.3C240 227.7 300 157.3 360 130.3C420 103.3 480 119.7 540 141.3C600 163 660 190 720 179.5C780 169 840 121 870 97L900 73L900 0L870 0C840 0 780 0 720 0C660 0 600 0 540 0C480 0 420 0 360 0C300 0 240 0 180 0C120 0 60 0 30 0L0 0Z" fill="#63327a"></path><path d="M0 163L30 187.8C60 212.7 120 262.3 180 262.3C240 262.3 300 212.7 360 196.2C420 179.7 480 196.3 540 225.7C600 255 660 297 720 293.2C780 289.3 840 239.7 870 214.8L900 190L900 71L870 95C840 119 780 167 720 177.5C660 188 600 161 540 139.3C480 117.7 420 101.3 360 128.3C300 155.3 240 225.7 180 226.3C120 227 60 158 30 123.5L0 89Z" fill="#8d21bf"></path><path d="M0 213L30 239.2C60 265.3 120 317.7 180 319.2C240 320.7 300 271.3 360 261.7C420 252 480 282 540 312.7C600 343.3 660 374.7 720 364.2C780 353.7 840 301.3 870 275.2L900 249L900 188L870 212.8C840 237.7 780 287.3 720 291.2C660 295 600 253 540 223.7C480 194.3 420 177.7 360 194.2C300 210.7 240 260.3 180 260.3C120 260.3 60 210.7 30 185.8L0 161Z" fill="#8d21bf"></path><path d="M0 451L30 451C60 451 120 451 180 451C240 451 300 451 360 451C420 451 480 451 540 451C600 451 660 451 720 451C780 451 840 451 870 451L900 451L900 247L870 273.2C840 299.3 780 351.7 720 362.2C660 372.7 600 341.3 540 310.7C480 280 420 250 360 259.7C300 269.3 240 318.7 180 317.2C120 315.7 60 263.3 30 237.2L0 211Z" fill="#63327a"></path></svg>