<svg id="visual" viewBox="0 0 900 450" width="900" height="450" xmlns="http://www.w3.org/2000/svg" xmlns:xlink="http://www.w3.org/1999/xlink" version="1.1"><path d="M0 132L25 121.5C50 111 100 90 150 75C200 60 250 51 300 66.7C350 82.3 400 122.7 450 142.2C500 161.7 550 160.3 600 141.7C650 123 700 87 750 69C800 51 850 51 875 51L900 51L900 0L875 0C850 0 800 0 750 0C700 0 650 0 600 0C550 0 500 0 450 0C400 0 350 0 300 0C250 0 200 0 150 0C100 0 50 0 25 0L0 0Z" fill="#000000"></path><path d="M0 244L25 229C50 214 100 184 150 163C200 142 250 130 300 140.5C350 151 400 184 450 194.5C500 205 550 193 600 185.5C650 178 700 175 750 162.3C800 149.7 850 127.3 875 116.2L900 105L900 49L875 49C850 49 800 49 750 67C700 85 650 121 600 139.7C550 158.3 500 159.7 450 140.2C400 120.7 350 80.3 300 64.7C250 49 200 58 150 73C100 88 50 109 25 119.5L0 130Z" fill="#0c0b0c"></path><path d="M0 411L25 375C50 339 100 267 150 239.2C200 211.3 250 227.7 300 239.7C350 251.7 400 259.3 450 282.7C500 306 550 345 600 341.2C650 337.3 700 290.7 750 258.3C800 226 850 208 875 199L900 190L900 103L875 114.2C850 125.3 800 147.7 750 160.3C700 173 650 176 600 183.5C550 191 500 203 450 192.5C400 182 350 149 300 138.5C250 128 200 140 150 161C100 182 50 212 25 227L0 242Z" fill="#0c0b0c"></path><path d="M0 451L25 451C50 451 100 451 150 451C200 451 250 451 300 451C350 451 400 451 450 451C500 451 550 451 600 451C650 451 700 451 750 451C800 451 850 451 875 451L900 451L900 188L875 197C850 206 800 224 750 256.3C700 288.7 650 335.3 600 339.2C550 343 500 304 450 280.7C400 257.3 350 249.7 300 237.7C250 225.7 200 209.3 150 237.2C100 265 50 337 25 373L0 409Z" fill="#000000"></path></svg>